<svg width="20" height="20" viewBox="0 0 20 20" fill="none" xmlns="http://www.w3.org/2000/svg">
<path d="M14.7917 0.338257C12.705 0.338257 10.8108 1.88076 10 3.96659C9.18917 1.87992 7.295 0.338257 5.20833 0.338257C2.33667 0.338257 0 2.67492 0 5.54659C0 11.1799 8.12833 17.2716 9.7575 18.4349L10 18.6083L10.2425 18.4349C11.8725 17.2716 20 11.1791 20 5.54659C20 2.67492 17.6633 0.338257 14.7917 0.338257ZM10 17.5824C5.71583 14.4699 0.833333 9.52326 0.833333 5.54659C0.833333 3.13409 2.79583 1.17159 5.20833 1.17159C7.49833 1.17159 9.58333 3.55492 9.58333 6.17159H10.4167C10.4167 3.55492 12.5017 1.17159 14.7917 1.17159C17.2042 1.17159 19.1667 3.13409 19.1667 5.54659C19.1667 9.52326 14.2842 14.4699 10 17.5824Z" fill="#919191"/>
</svg>
