<svg width="20" height="20" viewBox="0 0 20 20" fill="none" xmlns="http://www.w3.org/2000/svg">
<path d="M2.29199 13.4531V4.16495H1.04199V13.4531H2.29199ZM18.9587 13.4531V4.11111H17.7087V13.4531H18.9587ZM16.7136 1.89028C15.7649 1.92333 14.525 2.022 13.5711 2.30757L13.9296 3.50506C14.7206 3.26827 15.8247 3.172 16.7571 3.13952L16.7136 1.89028ZM13.5711 2.30757C12.7419 2.55581 11.8092 3.04068 11.0822 3.46147L11.7082 4.54335C12.417 4.13319 13.2461 3.70969 13.9296 3.50506L13.5711 2.30757ZM3.28065 3.18635C4.08564 3.23582 4.99735 3.33203 5.67419 3.51063L5.99313 2.302C5.19245 2.09072 4.17963 1.98924 3.35733 1.9387L3.28065 3.18635ZM5.67419 3.51063C6.47596 3.7222 7.46271 4.18508 8.27672 4.61551L8.86099 3.51049C8.03146 3.07183 6.94004 2.55188 5.99313 2.302L5.67419 3.51063ZM11.6507 17.276C12.4765 16.8358 13.4993 16.3505 14.3265 16.1323L14.0075 14.9236C13.0322 15.1809 11.9026 15.7252 11.0627 16.1729L11.6507 17.276ZM14.3265 16.1323C14.9956 15.9557 15.8947 15.8595 16.6937 15.8096L16.6156 14.562C15.7988 14.6131 14.7996 14.7146 14.0075 14.9236L14.3265 16.1323ZM8.93799 16.1729C8.09805 15.7252 6.96841 15.1809 5.99313 14.9236L5.67419 16.1323C6.50133 16.3505 7.52416 16.8358 8.34999 17.276L8.93799 16.1729ZM5.99313 14.9236C5.20109 14.7146 4.20179 14.6131 3.38506 14.562L3.30703 15.8096C4.10599 15.8595 5.00504 15.9557 5.67419 16.1323L5.99313 14.9236ZM17.7087 13.4531C17.7087 14.0246 17.2351 14.5233 16.6156 14.562L16.6937 15.8096C17.9222 15.7328 18.9587 14.7333 18.9587 13.4531H17.7087ZM18.9587 4.11111C18.9587 2.89169 17.9876 1.8459 16.7136 1.89028L16.7571 3.13952C17.2694 3.12168 17.7087 3.54312 17.7087 4.11111H18.9587ZM1.04199 13.4531C1.04199 14.7333 2.07848 15.7328 3.30703 15.8096L3.38506 14.562C2.76558 14.5233 2.29199 14.0246 2.29199 13.4531H1.04199ZM11.0627 16.1729C10.4024 16.5249 9.59824 16.5249 8.93799 16.1729L8.34999 17.276C9.37774 17.8238 10.6229 17.8238 11.6507 17.276L11.0627 16.1729ZM11.0822 3.46147C10.4004 3.85602 9.55174 3.8757 8.86099 3.51049L8.27672 4.61551C9.35358 5.18492 10.6595 5.15032 11.7082 4.54335L11.0822 3.46147ZM2.29199 4.16495C2.29199 3.58396 2.75235 3.15387 3.28065 3.18635L3.35733 1.9387C2.0588 1.85889 1.04199 2.91565 1.04199 4.16495H2.29199Z" fill="#919191"/>
<path d="M10 4.58374V17.0837" stroke="#919191" stroke-width="1.5"/>
</svg>
