<svg width="20" height="20" viewBox="0 0 20 20" fill="none" xmlns="http://www.w3.org/2000/svg">
<path d="M7.49967 9.99996C7.49967 11.1505 6.56693 12.0833 5.41634 12.0833C4.26575 12.0833 3.33301 11.1505 3.33301 9.99996C3.33301 8.84938 4.26575 7.91663 5.41634 7.91663C6.56693 7.91663 7.49967 8.84938 7.49967 9.99996Z" stroke="#919191" stroke-width="1.5"/>
<path d="M11.6667 5.41663L7.5 8.33329" stroke="#919191" stroke-width="1.5" stroke-linecap="round"/>
<path d="M11.6667 14.5833L7.5 11.6666" stroke="#919191" stroke-width="1.5" stroke-linecap="round"/>
<path d="M15.8337 15.4167C15.8337 16.5673 14.9009 17.5 13.7503 17.5C12.5997 17.5 11.667 16.5673 11.667 15.4167C11.667 14.2661 12.5997 13.3334 13.7503 13.3334C14.9009 13.3334 15.8337 14.2661 15.8337 15.4167Z" stroke="#919191" stroke-width="1.5"/>
<path d="M15.8337 4.58333C15.8337 5.73392 14.9009 6.66667 13.7503 6.66667C12.5997 6.66667 11.667 5.73392 11.667 4.58333C11.667 3.43274 12.5997 2.5 13.7503 2.5C14.9009 2.5 15.8337 3.43274 15.8337 4.58333Z" stroke="#919191" stroke-width="1.5"/>
</svg>
