<svg width="14" height="15" viewBox="0 0 14 15" fill="none" xmlns="http://www.w3.org/2000/svg">
<path d="M12.625 0.1875H3.0625C2.46576 0.1875 1.89347 0.424553 1.47151 0.84651C1.04955 1.26847 0.8125 1.84076 0.8125 2.4375V14.25C0.8125 14.3992 0.871763 14.5423 0.977253 14.6477C1.08274 14.7532 1.22582 14.8125 1.375 14.8125H11.5C11.6492 14.8125 11.7923 14.7532 11.8977 14.6477C12.0032 14.5423 12.0625 14.3992 12.0625 14.25C12.0625 14.1008 12.0032 13.9577 11.8977 13.8523C11.7923 13.7468 11.6492 13.6875 11.5 13.6875H1.9375C1.9375 13.3891 2.05603 13.103 2.267 12.892C2.47798 12.681 2.76413 12.5625 3.0625 12.5625H12.625C12.7742 12.5625 12.9173 12.5032 13.0227 12.3977C13.1282 12.2923 13.1875 12.1492 13.1875 12V0.75C13.1875 0.600816 13.1282 0.457742 13.0227 0.352252C12.9173 0.246763 12.7742 0.1875 12.625 0.1875ZM6.4375 1.3125H9.8125V6.375L8.4618 5.3625C8.36443 5.28947 8.24601 5.25 8.1243 5.25C8.00259 5.25 7.88416 5.28947 7.7868 5.3625L6.4375 6.375V1.3125ZM12.0625 11.4375H3.0625C2.66745 11.437 2.27929 11.541 1.9375 11.7391V2.4375C1.9375 2.13913 2.05603 1.85298 2.267 1.642C2.47798 1.43103 2.76413 1.3125 3.0625 1.3125H5.3125V7.5C5.3125 7.60446 5.34159 7.70686 5.39651 7.79572C5.45143 7.88459 5.53001 7.9564 5.62344 8.00311C5.71688 8.04983 5.82148 8.06961 5.92552 8.06023C6.02956 8.05085 6.12893 8.01268 6.2125 7.95L8.125 6.51562L10.0382 7.95C10.1354 8.02288 10.2535 8.06235 10.375 8.0625C10.5242 8.0625 10.6673 8.00324 10.7727 7.89775C10.8782 7.79226 10.9375 7.64918 10.9375 7.5V1.3125H12.0625V11.4375Z" fill="#064FA4"/>
</svg>
