<svg width="1080" height="750" viewBox="0 0 1080 750" fill="none" xmlns="http://www.w3.org/2000/svg">
<g clip-path="url(#clip0_124_2061)">
<path d="M0 24C0 10.7452 10.7452 0 24 0H1056C1069.25 0 1080 10.7452 1080 24V726C1080 739.255 1069.25 750 1056 750H24C10.7452 750 0 739.255 0 726V24Z" fill="url(#paint0_linear_124_2061)"/>
<g opacity="0.3">
<path d="M-16.7011 638.775C-15.3961 652.618 -18.7928 669.288 -17.0198 681.845C-15.412 692.925 -10.8478 702.535 -6.46801 712.137C-5.25675 714.756 -3.99317 717.296 -2.72961 719.836C8.77458 742.783 21.7846 766.606 19.5497 794.748C17.5103 819.715 2.67039 845.141 -17.9615 860.378C-38.5933 875.615 -64.1748 880.533 -85.4759 874.487C-102.293 869.684 -116.64 857.964 -123.991 841.51C-131.354 824.933 -131.352 803.636 -122.934 784.803C-113.148 762.884 -92.7176 744.212 -90.5625 721.371C-89.2249 706.534 -96.129 695.157 -98.2103 681.487C-99.5015 673.234 -99.163 664.231 -95.9506 655.753C-88.8487 637.193 -66.8626 618.747 -49.3797 614.194C-41.7105 612.18 -33.6834 613.362 -27.6575 617.442C-20.3378 622.145 -17.5739 629.886 -16.7011 638.775Z" fill="white"/>
<path opacity="0.56" d="M109.711 709.495C104.158 722.926 84.8468 722.169 73.6705 727.362C61.7215 732.954 52.8892 739.459 46.47 747.331C33.811 762.993 37.4391 783.893 41.3862 801.993C45.7457 822.121 48.2709 842.137 34.7691 859.839C31.801 863.686 26.8597 868.442 20.2385 868.796C8.62373 869.45 1.11257 859.473 -5.18593 851.372C-24.8534 826.337 -58.5977 791.045 -93.0956 812.072C-98.3945 815.296 -103.873 818.603 -109.914 818.516C-139.695 817.973 -138.241 788.469 -131.013 767.438C-123.786 746.407 -112.682 725.2 -110.17 702.428C-107.506 678.194 -123.036 654.21 -114.62 630.284C-112.174 623.416 -107.55 618.632 -101.935 617.133C-94.858 615.22 -87.0938 617.818 -81.9638 619.89C-59.2101 629.064 -53.1186 658.614 -29.6192 666.575C-14.408 671.744 2.5475 667.106 17.186 661.97C41.372 653.393 63.486 649.379 85.476 666.429C96.34 674.905 104.802 686.097 109.277 698.17C110.709 702.033 111.066 705.261 110.181 708.06C110.043 708.515 109.85 709.04 109.711 709.495Z" fill="white"/>
<path d="M-112.221 758.953C-124.161 749.841 -136.113 739.475 -143.677 726.172C-150.553 713.988 -154.361 694.302 -145.483 681.949C-139.768 673.966 -127.287 677.739 -119.093 676.834C-66.5486 671.282 -49.6814 611.235 -4.812 592.518C3.05259 589.199 12.3503 588.046 20.3484 591.624C28.6774 595.354 34.1068 603.551 37.8533 611.871C46.6135 631.45 48.1587 652.266 49.6072 673.343C50.8366 691.869 46.2399 718.516 61.4452 732.733C67.6073 738.461 77.2219 737.902 84.4613 741.438C103.339 750.789 99.8324 776.498 90.0845 791.21C78.7764 808.293 58.8368 820.046 38.0351 821.15C10.8605 822.58 -27.319 798.899 -50.3835 822.182C-52.6471 824.443 -54.718 827.311 -57.767 828.15C-62.1542 829.389 -66.8005 826.006 -68.7014 821.881C-71.6492 815.672 -71.7827 808.775 -73.82 802.276C-79.9184 783.472 -96.2285 771.198 -112.221 758.953Z" fill="white"/>
<path d="M79.6033 637.734C83.8729 632.404 83.0133 624.622 77.6834 620.353C72.3535 616.083 64.5716 616.943 60.302 622.272C56.0325 627.602 56.892 635.384 62.2219 639.654C67.5518 643.923 75.3337 643.064 79.6033 637.734Z" stroke="white" stroke-width="3" stroke-miterlimit="10"/>
<path d="M97.3185 632.007C99.1484 629.723 98.78 626.388 96.4957 624.558C94.2115 622.728 90.8764 623.096 89.0466 625.381C87.2168 627.665 87.5851 631 89.8694 632.83C92.1536 634.66 95.4887 634.291 97.3185 632.007Z" stroke="url(#paint1_linear_124_2061)" stroke-width="1.2857" stroke-miterlimit="10"/>
<path d="M93.4659 616.473C94.8688 614.722 94.5864 612.165 92.8351 610.762C91.0839 609.359 88.527 609.642 87.1241 611.393C85.7212 613.144 86.0037 615.701 87.7549 617.104C89.5062 618.507 92.0631 618.224 93.4659 616.473Z" stroke="url(#paint2_linear_124_2061)" stroke-width="0.985" stroke-miterlimit="10"/>
</g>
<path opacity="0.2" d="M310.5 83.25C316.299 83.25 321 78.549 321 72.75C321 66.951 316.299 62.25 310.5 62.25C304.701 62.25 300 66.951 300 72.75C300 78.549 304.701 83.25 310.5 83.25Z" stroke="white" stroke-width="6.3045" stroke-miterlimit="10"/>
<path opacity="0.2" d="M348.1 48.45C352.574 48.45 356.2 44.8235 356.2 40.35C356.2 35.8765 352.574 32.25 348.1 32.25C343.627 32.25 340 35.8765 340 40.35C340 44.8235 343.627 48.45 348.1 48.45Z" stroke="white" stroke-width="3.5463" stroke-miterlimit="10"/>
<g opacity="0.2">
<path d="M359.6 79.25L352.8 95.75" stroke="white" stroke-width="3.2226" stroke-miterlimit="10" stroke-linecap="round" stroke-linejoin="round"/>
<path d="M348 84.1504L364.5 90.8504" stroke="white" stroke-width="3.2226" stroke-miterlimit="10" stroke-linecap="round" stroke-linejoin="round"/>
</g>
<path opacity="0.2" d="M491.769 609.922C488.468 605.089 483.887 601.183 479.142 599.424C471.221 596.566 461.499 597.314 453.874 601.072C445.708 605.105 436.962 616.971 445.803 625.095C449.913 628.835 455.359 628.487 460.494 627.818C462.11 627.624 463.727 627.431 465.201 628.121C467.022 628.911 467.968 630.92 469.014 632.583C473.145 638.728 482.524 643.224 489.401 638.757C499.956 631.982 498.249 619.207 491.769 609.922Z" fill="white"/>
<path opacity="0.3" d="M492.6 672.25C492.6 671.75 492.5 671.55 492.5 670.85C492.3 669.45 492.2 668.55 491.3 667.25C489.9 665.05 488 663.65 485.5 662.85C485.5 662.85 485.5 662.85 485.4 662.85C485.2 662.75 484.9 662.65 484.7 662.55C483.1 662.15 481.5 662.15 480 662.55C478.5 663.05 477.1 663.75 475.9 664.85C475.6 665.15 475.4 665.55 475.1 665.85C474.8 666.15 474.5 666.55 474.3 666.85C473.9 667.45 473.5 668.55 473.3 669.25C473 670.05 473 671.05 473 671.95C473 673.75 473.3 674.45 473.9 675.95C474.4 677.25 474.4 677.15 475.2 678.15C476 679.25 475.9 679.15 477 679.95C477.4 680.25 477.7 680.55 478.1 680.85C479.5 681.75 481.2 682.05 482.8 682.15C484.5 682.25 486.4 681.55 487.8 680.75C488.7 680.25 489.2 679.85 489.8 679.15C490.3 678.65 490.9 677.85 491.3 677.15C492 675.95 492.3 674.75 492.4 673.55C492.5 673.15 492.6 672.65 492.6 672.25Z" fill="#FFDD95"/>
</g>
<defs>
<linearGradient id="paint0_linear_124_2061" x1="-130.5" y1="-91.4999" x2="1279.41" y2="286.035" gradientUnits="userSpaceOnUse">
<stop stop-color="#EADACB"/>
<stop offset="0.341346" stop-color="#D8B3CA"/>
<stop offset="0.587716" stop-color="#E9C579"/>
<stop offset="1" stop-color="#EFB186"/>
</linearGradient>
<linearGradient id="paint1_linear_124_2061" x1="94.6166" y1="634.325" x2="91.7717" y2="622.939" gradientUnits="userSpaceOnUse">
<stop stop-color="white"/>
<stop offset="1" stop-color="white"/>
</linearGradient>
<linearGradient id="paint2_linear_124_2061" x1="91.3959" y1="618.232" x2="89.2164" y2="609.509" gradientUnits="userSpaceOnUse">
<stop stop-color="white"/>
<stop offset="1" stop-color="white"/>
</linearGradient>
<clipPath id="clip0_124_2061">
<path d="M0 24C0 10.7452 10.7452 0 24 0H1056C1069.25 0 1080 10.7452 1080 24V726C1080 739.255 1069.25 750 1056 750H24C10.7452 750 0 739.255 0 726V24Z" fill="white"/>
</clipPath>
</defs>
</svg>
