<svg width="1440" height="461" viewBox="0 0 1440 461" fill="none" xmlns="http://www.w3.org/2000/svg">
<g clip-path="url(#clip0_11_855)">
<rect width="1440" height="461" fill="#FBFBFB"/>
<path opacity="0.2" d="M1157.77 74.6722C1154.47 69.8391 1149.89 65.9326 1145.14 64.1738C1137.22 61.3162 1127.5 62.0644 1119.87 65.822C1111.71 69.8549 1102.96 81.7214 1111.8 89.8452C1115.91 93.5854 1121.36 93.2373 1126.49 92.5675C1128.11 92.3742 1129.73 92.1809 1131.2 92.8707C1133.02 93.6614 1133.97 95.6704 1135.01 97.3332C1139.15 103.478 1148.52 107.974 1155.4 103.507C1165.96 96.7325 1164.25 83.9569 1157.77 74.6722Z" fill="#FFDD95"/>
<path opacity="0.3" d="M1158.6 137C1158.6 136.5 1158.5 136.3 1158.5 135.6C1158.3 134.2 1158.2 133.3 1157.3 132C1155.9 129.8 1154 128.4 1151.5 127.6C1151.5 127.6 1151.5 127.6 1151.4 127.6C1151.2 127.5 1150.9 127.4 1150.7 127.3C1149.1 126.9 1147.5 126.9 1146 127.3C1144.5 127.8 1143.1 128.5 1141.9 129.6C1141.6 129.9 1141.4 130.3 1141.1 130.6C1140.8 130.9 1140.5 131.3 1140.3 131.6C1139.9 132.2 1139.5 133.3 1139.3 134C1139 134.8 1139 135.8 1139 136.7C1139 138.5 1139.3 139.2 1139.9 140.7C1140.4 142 1140.4 141.9 1141.2 142.9C1142 144 1141.9 143.9 1143 144.7C1143.4 145 1143.7 145.3 1144.1 145.6C1145.5 146.5 1147.2 146.8 1148.8 146.9C1150.5 147 1152.4 146.3 1153.8 145.5C1154.7 145 1155.2 144.6 1155.8 143.9C1156.3 143.4 1156.9 142.6 1157.3 141.9C1158 140.7 1158.3 139.5 1158.4 138.3C1158.5 137.9 1158.6 137.4 1158.6 137Z" fill="#FFDD95"/>
<g opacity="0.3">
<path d="M85.5126 -6.86322C75.5248 2.80972 60.3902 10.5813 51.6991 19.8151C44.0563 27.9976 39.4099 37.5677 34.6541 46.9892C33.367 49.5722 32.1746 52.1464 30.9823 54.7205C20.2657 78.0453 9.80611 103.094 -13.5544 118.943C-34.3154 132.961 -63.4379 137.276 -88.2288 130.7C-113.02 124.123 -132.852 107.233 -141.451 86.828C-148.216 70.7002 -148.039 52.1749 -139.792 36.1512C-131.458 20.0398 -114.835 6.7272 -94.874 1.52235C-71.6487 -4.54407 -44.3025 -0.272295 -25.1286 -12.8705C-12.7126 -21.1025 -8.14957 -33.604 1.21826 -43.7749C6.85201 -49.9423 14.0898 -55.3066 22.7149 -58.0998C41.6407 -64.161 69.7827 -58.5338 84.2667 -47.7358C90.6335 -43.0096 94.7291 -36.0053 95.3125 -28.7518C96.218 -20.0985 91.9042 -13.1015 85.5126 -6.86322Z" fill="url(#paint0_linear_11_855)"/>
<path opacity="0.56" d="M109.351 136.012C95.3962 140.074 83.9142 124.53 72.8738 119.054C61.0385 113.224 50.4398 110.398 40.2826 110.31C20.1449 110.221 6.10155 126.119 -5.5571 140.516C-18.5406 156.503 -32.5839 170.988 -54.8414 171.517C-59.6991 171.606 -66.5 170.723 -70.9162 165.776C-78.6886 157.121 -75.5973 145.021 -73.2126 135.04C-65.9701 104.039 -59.5225 55.6376 -97.5014 41.8592C-103.331 39.7394 -109.337 37.5314 -113.046 32.7619C-131.241 9.17964 -107.305 -8.13168 -86.3727 -15.6391C-65.4401 -23.1466 -41.9462 -27.7394 -22.6034 -40.0163C-2.02416 -53.0881 6.9848 -80.2033 30.9204 -88.594C37.8096 -90.9787 44.4338 -90.3605 49.1149 -86.9159C55.0326 -82.588 57.8589 -74.9039 59.4487 -69.6045C66.5145 -46.1106 47.2601 -22.8816 55.7391 0.435658C61.2152 15.5389 75.4352 25.8727 88.5953 34.0868C110.411 47.6002 127.369 62.3501 127.811 90.1719C127.987 103.95 124.543 117.552 117.919 128.592C115.799 132.125 113.502 134.422 110.764 135.482C110.323 135.658 109.793 135.835 109.351 136.012Z" fill="#7FACD6"/>
<path d="M-68.0014 -6.27742C-68.3547 -21.2923 -67.7364 -37.1022 -62.0837 -51.3222C-56.8727 -64.3057 -43.8892 -79.5856 -28.6976 -80.3805C-18.8937 -80.9104 -14.036 -68.8102 -8.20666 -62.9808C28.9774 -25.4435 86.3874 -49.8207 129.047 -26.5034C136.555 -22.4405 143.267 -15.9046 145.476 -7.42562C147.772 1.40669 144.769 10.7689 140.618 18.8947C130.814 37.9724 115.534 52.1925 99.9891 66.5008C86.299 79.0427 62.6285 92.1145 61.0387 112.87C60.4204 121.261 66.868 128.415 68.6344 136.276C73.1389 156.855 50.8815 170.192 33.3052 171.782C12.9026 173.637 -8.73658 165.423 -22.6033 149.878C-40.7095 129.563 -46.0972 84.9603 -78.6885 81.5157C-81.8681 81.1624 -85.401 81.3391 -87.9624 79.4843C-91.672 76.8346 -91.9369 71.0936 -89.9055 67.0307C-86.9025 60.8481 -81.6031 56.432 -77.8052 50.7793C-66.9415 34.2629 -67.5597 13.8602 -68.0014 -6.27742Z" fill="url(#paint1_linear_11_855)"/>
<path d="M146.535 67.6484C153.364 67.6484 158.9 62.1123 158.9 55.2832C158.9 48.4541 153.364 42.918 146.535 42.918C139.706 42.918 134.17 48.4541 134.17 55.2832C134.17 62.1123 139.706 67.6484 146.535 67.6484Z" stroke="url(#paint2_linear_11_855)" stroke-width="3" stroke-miterlimit="10"/>
<path d="M162.08 77.8937C165.007 77.8937 167.38 75.5211 167.38 72.5943C167.38 69.6675 165.007 67.2949 162.08 67.2949C159.153 67.2949 156.781 69.6675 156.781 72.5943C156.781 75.5211 159.153 77.8937 162.08 77.8937Z" stroke="url(#paint3_linear_11_855)" stroke-width="1.2857" stroke-miterlimit="10"/>
<path d="M171.796 65.1755C174.04 65.1755 175.859 63.3565 175.859 61.1127C175.859 58.8688 174.04 57.0498 171.796 57.0498C169.552 57.0498 167.733 58.8688 167.733 61.1127C167.733 63.3565 169.552 65.1755 171.796 65.1755Z" stroke="url(#paint4_linear_11_855)" stroke-width="0.985" stroke-miterlimit="10"/>
</g>
<path opacity="0.2" d="M366.5 119C372.299 119 377 114.299 377 108.5C377 102.701 372.299 98 366.5 98C360.701 98 356 102.701 356 108.5C356 114.299 360.701 119 366.5 119Z" stroke="url(#paint5_linear_11_855)" stroke-width="6.3045" stroke-miterlimit="10"/>
<path opacity="0.2" d="M404.1 84.2C408.574 84.2 412.2 80.5735 412.2 76.1C412.2 71.6265 408.574 68 404.1 68C399.627 68 396 71.6265 396 76.1C396 80.5735 399.627 84.2 404.1 84.2Z" stroke="url(#paint6_linear_11_855)" stroke-width="3.5463" stroke-miterlimit="10"/>
<g opacity="0.2">
<path d="M415.6 115L408.8 131.5" stroke="url(#paint7_linear_11_855)" stroke-width="3.2226" stroke-miterlimit="10" stroke-linecap="round" stroke-linejoin="round"/>
<path d="M404 119.9L420.5 126.6" stroke="url(#paint8_linear_11_855)" stroke-width="3.2226" stroke-miterlimit="10" stroke-linecap="round" stroke-linejoin="round"/>
</g>
</g>
<defs>
<linearGradient id="paint0_linear_11_855" x1="-204.724" y1="191.349" x2="28.5912" y2="-114.081" gradientUnits="userSpaceOnUse">
<stop stop-color="#7FACD6"/>
<stop offset="1" stop-color="#E9B7D4"/>
</linearGradient>
<linearGradient id="paint1_linear_11_855" x1="-72.7543" y1="17.4419" x2="160.231" y2="105.984" gradientUnits="userSpaceOnUse">
<stop offset="2.54313e-07" stop-color="#E9B7D4"/>
<stop offset="1" stop-color="#7FACD6"/>
</linearGradient>
<linearGradient id="paint2_linear_11_855" x1="135.293" y1="63.097" x2="157.778" y2="47.4694" gradientUnits="userSpaceOnUse">
<stop stop-color="#7FACD6"/>
<stop offset="1" stop-color="#E9B7D4"/>
</linearGradient>
<linearGradient id="paint3_linear_11_855" x1="158.582" y1="77.2341" x2="165.689" y2="67.8953" gradientUnits="userSpaceOnUse">
<stop stop-color="#7FACD6"/>
<stop offset="1" stop-color="#E9B7D4"/>
</linearGradient>
<linearGradient id="paint4_linear_11_855" x1="169.129" y1="64.6596" x2="174.574" y2="57.505" gradientUnits="userSpaceOnUse">
<stop stop-color="#7FACD6"/>
<stop offset="1" stop-color="#E9B7D4"/>
</linearGradient>
<linearGradient id="paint5_linear_11_855" x1="357.427" y1="117.538" x2="375.571" y2="99.4603" gradientUnits="userSpaceOnUse">
<stop stop-color="#F9DABE"/>
<stop offset="1" stop-color="#E9B7D4"/>
</linearGradient>
<linearGradient id="paint6_linear_11_855" x1="397.147" y1="83.0661" x2="411.144" y2="69.1207" gradientUnits="userSpaceOnUse">
<stop stop-color="#F9DABE"/>
<stop offset="1" stop-color="#E9B7D4"/>
</linearGradient>
<linearGradient id="paint7_linear_11_855" x1="404.76" y1="127.406" x2="419.725" y2="119.092" gradientUnits="userSpaceOnUse">
<stop stop-color="#F9DABE"/>
<stop offset="1" stop-color="#E9B7D4"/>
</linearGradient>
<linearGradient id="paint8_linear_11_855" x1="416.383" y1="130.707" x2="408.068" y2="115.741" gradientUnits="userSpaceOnUse">
<stop stop-color="#F9DABE"/>
<stop offset="1" stop-color="#E9B7D4"/>
</linearGradient>
<clipPath id="clip0_11_855">
<rect width="1440" height="461" fill="white"/>
</clipPath>
</defs>
</svg>
