<svg width="1440" height="461" viewBox="0 0 1440 461" fill="none" xmlns="http://www.w3.org/2000/svg">
<g clip-path="url(#clip0_373_6145)">
<rect width="1440" height="461" fill="#FBFBFB"/>
<g opacity="0.2">
<path d="M1628.53 98.6774C1640.87 32.2892 1628.52 -63.2818 1550.44 -68.982C1491.77 -73.2699 1488.81 13.9765 1445.14 36.5646C1408.84 55.2692 1348.43 48.9192 1342.18 103.15C1337.75 141.077 1374.2 161.919 1388.37 192.754C1404.78 228.561 1380.18 320.465 1448.44 306.037C1529.56 288.885 1594.99 201.542 1621.14 127.487C1624.1 118.94 1626.62 109.202 1628.53 98.6774Z" fill="url(#paint0_linear_373_6145)"/>
<path opacity="0.62" d="M1617.75 122.52C1637.6 99.0573 1651.48 103.292 1665.87 80.8099C1668.84 76.1831 1684.14 52.1001 1676.58 29.6812C1666.68 0.712442 1623.59 -9.96046 1594.47 -8.198C1540.88 -5.03617 1508.69 41.7249 1499.9 54.3416C1493.43 63.7466 1466.8 104.483 1472.72 159.966C1476.39 193.954 1495.02 258.659 1541.77 269.131C1571.86 275.889 1609.59 259.494 1614.37 238.703C1618.52 220.827 1595.14 212.741 1593.14 183.158C1591.1 153.996 1611.79 129.494 1617.75 122.52Z" fill="#B7D1E8"/>
<path d="M1501.09 50.3536C1456.03 46.0659 1410.05 51.1406 1367.25 65.9277C1354.76 70.264 1345.44 74.2703 1335.93 83.5223C1312.93 105.895 1314.66 141.785 1333.27 166.461C1346.11 183.462 1364.57 195.158 1383.13 205.512C1401.68 215.865 1421.63 227.028 1438.64 240.757C1453.1 252.541 1467.78 270.761 1488.93 264.334C1512.22 257.239 1517.7 231.832 1529.1 213.476C1555.92 170.554 1616.09 206.717 1645.69 170.256C1691.36 113.935 1600.54 73.2272 1558.97 61.2406C1540.1 55.8351 1520.74 52.2211 1501.09 50.3536Z" fill="url(#paint1_linear_373_6145)"/>
<path d="M1406.05 249.937C1405.78 261.086 1424.03 266.205 1428.41 253.485C1434.76 236.301 1405.41 231.627 1406.05 249.937Z" fill="#E4EEF7"/>
<path d="M1374.9 233.58C1377.57 258.188 1419.42 243.642 1401.89 223.583C1393.21 212.852 1373.89 219.499 1374.9 233.58Z" fill="#E4EEF7"/>
<path d="M1496.86 11.5975C1494.99 11.1586 1493.02 10.9219 1491.02 10.9659C1488.09 11.1107 1485.1 11.6767 1482.38 12.9168C1477.65 14.9817 1474.58 19.1704 1470.09 21.5499C1468.19 22.532 1465.72 23.5868 1463.54 23.8948C1459.21 24.3704 1437.63 14.3638 1437.47 27.4503C1437.35 31.994 1439.44 36.5893 1442.92 39.5731C1445.78 41.9108 1449.68 43.165 1453.02 40.931C1454.57 39.8364 1455.84 38.2082 1457.15 36.799C1458.2 35.7154 1460.33 32.2678 1461.98 32.1112C1466.58 31.8098 1482.92 42.7522 1493.36 42.4421C1499.36 42.3099 1505.33 39.3975 1508.13 33.8944C1510.9 28.6722 1510.08 22.4487 1506.5 17.8865C1503.97 14.6615 1500.58 12.6156 1496.86 11.5975Z" fill="#D2E2F1" fill-opacity="0.59"/>
<path d="M1377.58 268.089C1379.97 266.214 1380.39 262.756 1378.51 260.367C1376.64 257.978 1373.18 257.561 1370.79 259.437C1368.4 261.312 1367.99 264.77 1369.86 267.159C1371.74 269.548 1375.19 269.965 1377.58 268.089Z" fill="#E4EEF7"/>
<path d="M1398.17 262.735C1399.69 261.541 1399.96 259.341 1398.76 257.82C1397.57 256.3 1395.37 256.035 1393.85 257.228C1392.33 258.422 1392.06 260.622 1393.26 262.143C1394.45 263.663 1396.65 263.928 1398.17 262.735Z" stroke="#E4EEF7" stroke-width="1.2727" stroke-miterlimit="10"/>
<path d="M1389.28 266.151L1394.15 272.506L1399.01 278.86L1391.05 279.896L1383.17 280.87L1386.19 273.541L1389.28 266.151Z" stroke="#E4EEF7" stroke-width="2.0193" stroke-miterlimit="10"/>
</g>
<path opacity="0.3" d="M953.8 209.666C953.6 209.066 953.3 208.466 952.9 207.966C952.8 207.766 952.6 207.566 952.4 207.366C952.2 207.166 952.1 207.066 951.9 206.966C951.6 206.666 951.2 206.466 950.8 206.366C950.4 206.166 950 206.066 949.6 206.066C949 205.966 948.3 205.966 947.7 206.166C947.3 206.266 946.9 206.466 946.5 206.666C946.3 206.766 945.6 207.266 945.5 207.466C945.4 207.566 944.8 208.366 944.7 208.466C944.6 208.666 944.2 209.466 944.2 209.666C944.1 210.066 944.1 210.566 944 210.966C944.1 211.366 944.1 211.866 944.2 212.266C944.4 212.866 944.7 213.466 945.1 213.966C945.3 214.366 945.6 214.666 946 214.866C946.3 215.166 946.7 215.366 947.1 215.466C947.5 215.666 947.9 215.766 948.4 215.766C948.8 215.866 949.3 215.866 949.7 215.766C950.4 215.766 951 215.566 951.5 215.166C951.8 214.866 952.2 214.666 952.5 214.366C952.8 214.066 953 213.666 953.3 213.366C953.5 212.966 953.6 212.566 953.8 212.166C953.9 211.766 953.9 211.266 954 210.866C953.9 210.566 953.8 210.066 953.8 209.666Z" fill="#FFDD95"/>
<path opacity="0.2" d="M1157.77 74.6721C1154.47 69.8389 1149.89 65.9324 1145.14 64.1736C1137.22 61.316 1127.5 62.0642 1119.87 65.8219C1111.71 69.8547 1102.96 81.7212 1111.8 89.845C1115.91 93.5853 1121.36 93.2371 1126.49 92.5673C1128.11 92.374 1129.73 92.1807 1131.2 92.8705C1133.02 93.6613 1133.97 95.6702 1135.01 97.333C1139.15 103.477 1148.52 107.973 1155.4 103.507C1165.96 96.7323 1164.25 83.9567 1157.77 74.6721Z" fill="#FFDD95"/>
<path opacity="0.3" d="M1158.6 137C1158.6 136.5 1158.5 136.3 1158.5 135.6C1158.3 134.2 1158.2 133.3 1157.3 132C1155.9 129.8 1154 128.4 1151.5 127.6C1151.5 127.6 1151.5 127.6 1151.4 127.6C1151.2 127.5 1150.9 127.4 1150.7 127.3C1149.1 126.9 1147.5 126.9 1146 127.3C1144.5 127.8 1143.1 128.5 1141.9 129.6C1141.6 129.9 1141.4 130.3 1141.1 130.6C1140.8 130.9 1140.5 131.3 1140.3 131.6C1139.9 132.2 1139.5 133.3 1139.3 134C1139 134.8 1139 135.8 1139 136.7C1139 138.5 1139.3 139.2 1139.9 140.7C1140.4 142 1140.4 141.9 1141.2 142.9C1142 144 1141.9 143.9 1143 144.7C1143.4 145 1143.7 145.3 1144.1 145.6C1145.5 146.5 1147.2 146.8 1148.8 146.9C1150.5 147 1152.4 146.3 1153.8 145.5C1154.7 145 1155.2 144.6 1155.8 143.9C1156.3 143.4 1156.9 142.6 1157.3 141.9C1158 140.7 1158.3 139.5 1158.4 138.3C1158.5 137.9 1158.6 137.4 1158.6 137Z" fill="#FFDD95"/>
<g opacity="0.3">
<path d="M85.5126 -6.86328C75.5248 2.80966 60.3902 10.5813 51.6991 19.8151C44.0562 27.9975 39.4099 37.5677 34.6541 46.9892C33.367 49.5722 32.1746 52.1463 30.9823 54.7205C20.2657 78.0453 9.80612 103.094 -13.5544 118.943C-34.3154 132.961 -63.4379 137.276 -88.2288 130.7C-113.02 124.123 -132.852 107.233 -141.451 86.828C-148.216 70.7001 -148.039 52.1748 -139.792 36.1511C-131.458 20.0397 -114.835 6.72714 -94.8739 1.52229C-71.6487 -4.54413 -44.3024 -0.272355 -25.1286 -12.8705C-12.7126 -21.1026 -8.14957 -33.604 1.21826 -43.775C6.852 -49.9423 14.0898 -55.3066 22.7149 -58.0999C41.6407 -64.161 69.7827 -58.5339 84.2667 -47.7359C90.6335 -43.0096 94.7291 -36.0054 95.3125 -28.7518C96.218 -20.0986 91.9042 -13.1016 85.5126 -6.86328Z" fill="url(#paint2_linear_373_6145)"/>
<path opacity="0.56" d="M109.351 136.012C95.3962 140.075 83.9142 124.53 72.8738 119.054C61.0385 113.224 50.4398 110.398 40.2826 110.31C20.1449 110.221 6.10155 126.12 -5.5571 140.516C-18.5406 156.503 -32.5839 170.988 -54.8414 171.518C-59.6991 171.606 -66.5 170.723 -70.9162 165.777C-78.6886 157.121 -75.5973 145.021 -73.2126 135.04C-65.9701 104.039 -59.5225 55.6378 -97.5014 41.8594C-103.331 39.7396 -109.337 37.5315 -113.046 32.7621C-131.241 9.17982 -107.305 -8.13149 -86.3727 -15.639C-65.4401 -23.1464 -41.9462 -27.7392 -22.6034 -40.0161C-2.02415 -53.0879 6.98479 -80.2031 30.9203 -88.5938C37.8096 -90.9785 44.4338 -90.3603 49.1149 -86.9157C55.0326 -82.5879 57.8589 -74.9037 59.4487 -69.6044C66.5145 -46.1104 47.2601 -22.8815 55.7392 0.435844C61.2152 15.5391 75.4352 25.8729 88.5953 34.0869C110.411 47.6004 127.369 62.3503 127.811 90.1721C127.987 103.95 124.543 117.552 117.919 128.593C115.799 132.126 113.502 134.422 110.764 135.482C110.323 135.658 109.793 135.835 109.351 136.012Z" fill="#7FACD6"/>
<path d="M-68.0014 -6.27754C-68.3547 -21.2925 -67.7364 -37.1023 -62.0837 -51.3223C-56.8727 -64.3058 -43.8892 -79.5857 -28.6976 -80.3806C-18.8937 -80.9105 -14.036 -68.8103 -8.20666 -62.981C28.9774 -25.4436 86.3874 -49.8208 129.047 -26.5035C136.555 -22.4407 143.267 -15.9048 145.476 -7.42574C147.772 1.40656 144.769 10.7688 140.618 18.8945C130.814 37.9723 115.534 52.1924 99.9891 66.5007C86.299 79.0426 62.6285 92.1144 61.0387 112.87C60.4204 121.261 66.868 128.415 68.6344 136.276C73.1389 156.855 50.8815 170.192 33.3052 171.782C12.9026 173.637 -8.73658 165.423 -22.6033 149.878C-40.7095 129.563 -46.0972 84.9602 -78.6885 81.5156C-81.8681 81.1623 -85.401 81.3389 -87.9624 79.4842C-91.672 76.8345 -91.9369 71.0935 -89.9055 67.0306C-86.9025 60.848 -81.6031 56.4318 -77.8052 50.7792C-66.9415 34.2627 -67.5597 13.8601 -68.0014 -6.27754Z" fill="url(#paint3_linear_373_6145)"/>
<path d="M146.535 67.6484C153.364 67.6484 158.9 62.1123 158.9 55.2832C158.9 48.4541 153.364 42.918 146.535 42.918C139.706 42.918 134.17 48.4541 134.17 55.2832C134.17 62.1123 139.706 67.6484 146.535 67.6484Z" stroke="url(#paint4_linear_373_6145)" stroke-width="3" stroke-miterlimit="10"/>
<path d="M162.08 77.8937C165.007 77.8937 167.38 75.5211 167.38 72.5943C167.38 69.6675 165.007 67.2949 162.08 67.2949C159.153 67.2949 156.781 69.6675 156.781 72.5943C156.781 75.5211 159.153 77.8937 162.08 77.8937Z" stroke="url(#paint5_linear_373_6145)" stroke-width="1.2857" stroke-miterlimit="10"/>
<path d="M171.796 65.1755C174.04 65.1755 175.859 63.3565 175.859 61.1127C175.859 58.8688 174.04 57.0498 171.796 57.0498C169.552 57.0498 167.733 58.8688 167.733 61.1127C167.733 63.3565 169.552 65.1755 171.796 65.1755Z" stroke="url(#paint6_linear_373_6145)" stroke-width="0.985" stroke-miterlimit="10"/>
</g>
<path opacity="0.2" d="M366.5 119C372.299 119 377 114.299 377 108.5C377 102.701 372.299 98 366.5 98C360.701 98 356 102.701 356 108.5C356 114.299 360.701 119 366.5 119Z" stroke="url(#paint7_linear_373_6145)" stroke-width="6.3045" stroke-miterlimit="10"/>
<path opacity="0.2" d="M404.1 84.2C408.574 84.2 412.2 80.5735 412.2 76.1C412.2 71.6265 408.574 68 404.1 68C399.627 68 396 71.6265 396 76.1C396 80.5735 399.627 84.2 404.1 84.2Z" stroke="url(#paint8_linear_373_6145)" stroke-width="3.5463" stroke-miterlimit="10"/>
<g opacity="0.2">
<path d="M415.6 115L408.8 131.5" stroke="url(#paint9_linear_373_6145)" stroke-width="3.2226" stroke-miterlimit="10" stroke-linecap="round" stroke-linejoin="round"/>
<path d="M404 119.9L420.5 126.6" stroke="url(#paint10_linear_373_6145)" stroke-width="3.2226" stroke-miterlimit="10" stroke-linecap="round" stroke-linejoin="round"/>
</g>
</g>
<defs>
<linearGradient id="paint0_linear_373_6145" x1="1358.8" y1="231.627" x2="1643.97" y2="7.76102" gradientUnits="userSpaceOnUse">
<stop stop-color="#959EC2"/>
<stop offset="1" stop-color="#D9E5FA"/>
</linearGradient>
<linearGradient id="paint1_linear_373_6145" x1="1271.81" y1="227.321" x2="1562.01" y2="111.884" gradientUnits="userSpaceOnUse">
<stop offset="2.34751e-07" stop-color="#E9B7D4"/>
<stop offset="0.9995" stop-color="#C0B9DB"/>
</linearGradient>
<linearGradient id="paint2_linear_373_6145" x1="-204.724" y1="191.349" x2="28.5912" y2="-114.081" gradientUnits="userSpaceOnUse">
<stop stop-color="#7FACD6"/>
<stop offset="1" stop-color="#E9B7D4"/>
</linearGradient>
<linearGradient id="paint3_linear_373_6145" x1="-72.7543" y1="17.4417" x2="160.231" y2="105.983" gradientUnits="userSpaceOnUse">
<stop offset="2.54313e-07" stop-color="#E9B7D4"/>
<stop offset="1" stop-color="#7FACD6"/>
</linearGradient>
<linearGradient id="paint4_linear_373_6145" x1="135.293" y1="63.097" x2="157.778" y2="47.4694" gradientUnits="userSpaceOnUse">
<stop stop-color="#7FACD6"/>
<stop offset="1" stop-color="#E9B7D4"/>
</linearGradient>
<linearGradient id="paint5_linear_373_6145" x1="158.582" y1="77.2341" x2="165.689" y2="67.8953" gradientUnits="userSpaceOnUse">
<stop stop-color="#7FACD6"/>
<stop offset="1" stop-color="#E9B7D4"/>
</linearGradient>
<linearGradient id="paint6_linear_373_6145" x1="169.129" y1="64.6596" x2="174.574" y2="57.505" gradientUnits="userSpaceOnUse">
<stop stop-color="#7FACD6"/>
<stop offset="1" stop-color="#E9B7D4"/>
</linearGradient>
<linearGradient id="paint7_linear_373_6145" x1="357.427" y1="117.538" x2="375.571" y2="99.4603" gradientUnits="userSpaceOnUse">
<stop stop-color="#F9DABE"/>
<stop offset="1" stop-color="#E9B7D4"/>
</linearGradient>
<linearGradient id="paint8_linear_373_6145" x1="397.147" y1="83.0661" x2="411.144" y2="69.1207" gradientUnits="userSpaceOnUse">
<stop stop-color="#F9DABE"/>
<stop offset="1" stop-color="#E9B7D4"/>
</linearGradient>
<linearGradient id="paint9_linear_373_6145" x1="404.76" y1="127.406" x2="419.725" y2="119.092" gradientUnits="userSpaceOnUse">
<stop stop-color="#F9DABE"/>
<stop offset="1" stop-color="#E9B7D4"/>
</linearGradient>
<linearGradient id="paint10_linear_373_6145" x1="416.383" y1="130.707" x2="408.068" y2="115.741" gradientUnits="userSpaceOnUse">
<stop stop-color="#F9DABE"/>
<stop offset="1" stop-color="#E9B7D4"/>
</linearGradient>
<clipPath id="clip0_373_6145">
<rect width="1440" height="461" fill="white"/>
</clipPath>
</defs>
</svg>
