<svg width="580" height="654" viewBox="0 0 580 654" fill="none" xmlns="http://www.w3.org/2000/svg">
<g clip-path="url(#clip0_124_2065)">
<rect x="0.5" width="579" height="654" rx="18" fill="white"/>
<g opacity="0.2">
<path d="M639.383 124.36C704.837 140.958 801.006 134.801 811.733 57.2466C819.797 -1.02325 732.924 -9.60448 713.201 -54.6437C696.877 -92.0716 707.112 -151.951 653.397 -161.683C615.835 -168.546 592.685 -133.519 561 -121.375C524.209 -107.306 434.083 -137.786 444.077 -68.7384C455.959 13.321 538.898 84.2513 611.11 115.129C619.449 118.627 629.004 121.776 639.383 124.36Z" fill="url(#paint0_linear_124_2065)"/>
<path opacity="0.62" d="M616.286 112.066C638.419 133.387 633.297 146.961 654.805 162.77C659.23 166.041 682.276 182.856 705.135 176.762C734.683 168.751 748.113 126.444 748.234 97.263C748.537 43.5873 703.95 8.43995 691.927 -1.1399C682.959 -8.20755 644.026 -37.4092 588.276 -35.0773C554.123 -33.6081 488.35 -19.1914 474.884 26.7777C466.198 56.3751 480.125 95.0822 500.563 101.197C518.134 106.488 527.713 83.6751 557.363 83.5956C586.596 83.4383 609.712 105.661 616.286 112.066Z" fill="#B7D1E8"/>
<path d="M695.829 0.307261C703.016 -44.3876 700.919 -90.5986 688.925 -134.268C685.403 -147.009 682.006 -156.562 673.388 -166.658C652.546 -191.046 616.618 -191.634 590.793 -174.657C572.999 -162.943 560.136 -145.273 548.607 -127.427C537.078 -109.581 524.651 -90.3925 509.853 -74.307C497.161 -60.6343 478.03 -47.1555 483.08 -25.6413C488.658 -1.94277 513.658 5.16655 531.24 17.7254C572.342 47.2596 532.372 104.972 566.847 136.867C620.103 186.076 666.586 98.0724 681.231 57.3582C687.842 38.8825 692.698 19.7918 695.829 0.307261Z" fill="url(#paint1_linear_124_2065)"/>
<path d="M514.037 124.21C515.755 126.716 519.178 127.354 521.684 125.637C524.189 123.919 524.828 120.496 523.11 117.99C521.392 115.485 517.969 114.846 515.464 116.564C512.958 118.282 512.32 121.705 514.037 124.21Z" stroke="#E4EEF7" stroke-width="2" stroke-miterlimit="10"/>
<path d="M539.939 100.27C541.223 103.027 540.044 106.26 537.344 107.626C534.587 108.91 531.354 107.732 529.987 105.031" stroke="#E4EEF7" stroke-width="2" stroke-miterlimit="10"/>
<path d="M569.655 163.07L568.454 156.013L561.279 156.688L560.16 149.574L553.042 150.332L551.784 143.192L544.665 143.95" stroke="#E4EEF7" stroke-width="3.0845" stroke-miterlimit="10"/>
<path d="M538.319 129.387L538.35 125.365L536.114 121.927L540.137 121.958L543.575 119.722L543.544 123.744L545.78 127.183L541.757 127.152L538.319 129.387Z" fill="#E4EEF7"/>
</g>
</g>
<rect x="0.875" y="0.375" width="578.25" height="653.25" rx="17.625" stroke="#666666" stroke-opacity="0.5" stroke-width="0.75"/>
<defs>
<linearGradient id="paint0_linear_124_2065" x1="524.116" y1="-153.384" x2="729.114" y2="145.636" gradientUnits="userSpaceOnUse">
<stop stop-color="#959EC2"/>
<stop offset="1" stop-color="#D9E5FA"/>
</linearGradient>
<linearGradient id="paint1_linear_124_2065" x1="534.026" y1="-239.923" x2="630.496" y2="57.1282" gradientUnits="userSpaceOnUse">
<stop offset="2.34751e-07" stop-color="#E9B7D4"/>
<stop offset="0.9995" stop-color="#C0B9DB"/>
</linearGradient>
<clipPath id="clip0_124_2065">
<rect x="0.5" width="579" height="654" rx="18" fill="white"/>
</clipPath>
</defs>
</svg>
